<svg version="1.1" id="Layer_1" xmlns="http://www.w3.org/2000/svg" xmlns:xlink="http://www.w3.org/1999/xlink" x="0px" y="0px"
	 width="100%" viewBox="0 0 345 358" enable-background="new 0 0 345 358" xml:space="preserve">
<path fill="#FFFFFF" opacity="1.000000" stroke="none" 
	d="
M1.000000,131.000000 
	C1.000000,87.348686 1.000000,44.197369 1.000000,1.023025 
	C115.943748,1.023025 230.887512,1.023025 345.915649,1.023025 
	C345.915649,120.234596 345.915649,239.469269 345.915649,358.851990 
	C231.000137,358.851990 116.000092,358.851990 1.000000,358.851990 
	C1.000000,283.112579 1.000000,207.306290 1.000000,131.000000 
M309.770691,273.500031 
	C309.770691,196.562897 309.770691,119.625778 309.770691,42.633484 
	C215.926666,42.633484 122.729004,42.633484 29.549868,42.633484 
	C29.549868,141.791916 29.549868,240.545227 29.549868,339.358032 
	C123.068405,339.358032 216.265228,339.358032 309.770538,339.358032 
	C309.770538,317.467560 309.770538,295.983795 309.770691,273.500031 
z"/>
<path fill="#0CC197" opacity="1.000000" stroke="none" 
	d="
M309.770630,274.000061 
	C309.770538,295.983795 309.770538,317.467560 309.770538,339.358032 
	C216.265228,339.358032 123.068405,339.358032 29.549868,339.358032 
	C29.549868,240.545227 29.549868,141.791916 29.549868,42.633484 
	C122.729004,42.633484 215.926666,42.633484 309.770691,42.633484 
	C309.770691,119.625778 309.770691,196.562897 309.770630,274.000061 
M301.804993,274.500000 
	C301.804993,199.911194 301.804993,125.322395 301.804993,50.544624 
	C213.354645,50.544624 125.497177,50.544624 37.575851,50.544624 
	C37.575851,144.398911 37.575851,237.920609 37.575851,331.366913 
	C125.818886,331.366913 213.676514,331.366913 301.804871,331.366913 
	C301.804871,312.464905 301.804871,293.982452 301.804993,274.500000 
z"/>
<path fill="#FDFEFE" opacity="1.000000" stroke="none" 
	d="
M301.804932,275.000000 
	C301.804871,293.982452 301.804871,312.464905 301.804871,331.366913 
	C213.676514,331.366913 125.818886,331.366913 37.575851,331.366913 
	C37.575851,237.920609 37.575851,144.398911 37.575851,50.544624 
	C125.497177,50.544624 213.354645,50.544624 301.804993,50.544624 
	C301.804993,125.322395 301.804993,199.911194 301.804932,275.000000 
M220.452026,186.483353 
	C219.819244,189.121460 220.620071,190.646759 223.570175,190.579605 
	C226.671753,190.509003 229.774292,190.481400 233.791809,190.709930 
	C241.868896,190.747025 249.945984,190.784103 258.875549,190.931046 
	C260.587555,190.865341 262.299561,190.799622 264.942078,190.786194 
	C269.839417,190.786194 274.736755,190.786194 279.975006,190.786194 
	C279.473297,189.107620 279.159271,188.056992 279.283478,186.525909 
	C278.632996,186.049957 277.982635,185.158859 277.332062,185.158707 
	C260.493500,185.154633 243.654953,185.243271 226.231644,185.296890 
	C225.846970,185.361237 225.462296,185.425568 224.358261,185.181732 
	C223.196915,185.420609 222.035553,185.659485 220.452026,186.483353 
M191.958954,309.613281 
	C198.235840,309.332703 201.801865,306.920837 202.009201,302.323792 
	C202.480316,291.877930 202.871552,281.423615 203.008423,270.968994 
	C203.116302,262.729248 202.826950,262.659393 194.786713,262.245605 
	C193.492111,262.178955 192.223923,261.634338 190.939560,261.327240 
	C184.835907,259.867798 180.461792,262.240784 178.615463,268.006714 
	C176.398819,274.929016 173.895996,277.395905 167.685959,277.475098 
	C159.249496,277.582703 150.805115,277.267456 142.368195,277.003693 
	C140.240036,276.937134 138.115295,276.036957 136.009888,276.111359 
	C131.008560,276.288116 126.019722,277.121948 121.025848,277.121765 
	C115.998665,277.121582 111.953346,272.939819 111.991539,267.936676 
	C112.047134,260.653442 112.588425,253.375168 112.740974,246.090973 
	C112.876495,239.619843 112.811043,233.143066 112.747963,226.669632 
	C112.692642,220.992050 112.632553,215.310074 112.358658,209.640472 
	C112.141396,205.142944 111.398659,200.667892 111.247597,196.170807 
	C111.048042,190.230286 111.198494,184.278030 111.198494,178.158218 
	C110.392677,178.209656 109.244164,178.282974 109.343742,178.276611 
	C110.249535,175.038605 111.828262,171.777344 111.975914,168.452515 
	C112.596931,154.467743 112.847450,140.465088 113.107773,126.466629 
	C113.192978,121.885170 113.450569,117.197273 112.649826,112.733780 
	C111.333549,105.396606 113.113594,101.699890 120.081703,99.743286 
	C126.389252,97.972160 128.546906,95.359741 128.924316,88.803795 
	C129.058167,86.478882 128.658905,84.093964 129.017975,81.817665 
	C129.683151,77.600830 127.433060,75.175606 123.945412,74.557022 
	C118.928436,73.667198 113.754791,73.537109 108.638611,73.369118 
	C104.490852,73.232925 100.327652,73.643845 96.174118,73.590858 
	C87.937378,73.485794 79.697105,72.961021 71.468933,73.129456 
	C66.186409,73.237595 63.680099,76.586075 63.733009,82.020576 
	C63.755718,84.353035 63.757648,86.686043 63.736645,89.018517 
	C63.673931,95.983765 66.107117,98.693657 72.941719,100.108589 
	C74.580582,100.447876 76.427246,101.900848 77.279396,103.364868 
	C78.254402,105.039970 77.813782,107.508873 78.708336,109.266350 
	C82.092262,115.914574 78.395035,122.668678 79.286865,129.454910 
	C80.215714,136.522858 78.815941,143.874405 78.707008,151.106049 
	C78.508400,164.289444 78.455566,177.475861 78.449753,190.661072 
	C78.445976,199.236053 78.675613,207.810913 78.717346,216.386230 
	C78.739708,220.979752 78.638931,225.575729 78.499680,230.167740 
	C78.248238,238.459427 77.787582,246.747299 77.686844,255.040054 
	C77.628494,259.843689 78.418663,264.664978 78.248703,269.457825 
	C78.072174,274.435791 75.128166,276.912537 70.134415,277.191620 
	C63.997444,277.534576 60.388638,281.262604 60.352829,287.309021 
	C60.335068,290.307404 60.359150,293.306244 60.322254,296.304321 
	C60.183216,307.601715 62.763565,310.028778 74.206276,309.660187 
	C86.733871,309.256561 99.264648,308.770355 111.795776,308.715363 
	C121.922523,308.670898 132.051178,309.405304 142.180222,309.441010 
	C152.246048,309.476501 162.312927,309.034271 172.380615,308.891663 
	C174.287476,308.864685 176.196976,309.383484 178.111069,309.435150 
	C182.472443,309.552948 186.837402,309.537170 191.958954,309.613281 
M237.173584,159.284439 
	C236.399719,157.382172 235.866791,155.327820 234.787613,153.618301 
	C233.589615,151.720505 232.044159,148.887253 230.381180,148.686340 
	C227.246201,148.307602 223.151474,147.006989 220.973526,151.091202 
	C219.023529,154.747971 221.064407,164.088181 224.496826,166.543961 
	C236.028931,174.794739 248.897369,176.065796 262.062683,172.178131 
	C271.157959,169.492340 278.777039,164.280838 279.687866,153.499100 
	C280.600800,142.692505 279.663116,132.303955 269.794830,125.365891 
	C266.314453,122.918930 262.140076,121.483719 258.416748,119.352242 
	C251.710007,115.512901 244.733887,111.992798 238.577484,107.392868 
	C233.907623,103.903625 233.130051,96.634102 235.470673,91.952415 
	C238.143982,86.605225 243.080353,84.837044 252.004059,86.030205 
	C258.532257,86.903076 260.337128,88.865433 262.148529,95.316605 
	C262.653870,97.116333 264.825928,99.522949 266.451385,99.704994 
	C269.635742,100.061646 273.688843,101.270508 275.837921,97.249939 
	C277.691071,93.782944 275.999817,85.165024 272.914459,82.465767 
	C263.257294,74.017090 251.870071,71.384979 239.468262,73.487015 
	C232.106491,74.734795 225.695755,78.188683 223.310776,85.911346 
	C216.862137,106.792412 223.629654,118.978760 241.460373,128.852829 
	C246.241074,131.500214 251.422394,133.414352 256.351898,135.805115 
	C264.077942,139.552155 266.641754,144.736435 264.712280,152.351898 
	C262.952240,159.298584 257.703400,163.241806 249.771667,162.659668 
	C245.729385,162.362976 241.781403,160.781281 237.173584,159.284439 
z"/>
<path fill="#05BE93" opacity="1.000000" stroke="none" 
	d="
M191.579926,309.594482 
	C186.837402,309.537170 182.472443,309.552948 178.111069,309.435150 
	C176.196976,309.383484 174.287476,308.864685 172.380615,308.891663 
	C162.312927,309.034271 152.246048,309.476501 142.180222,309.441010 
	C132.051178,309.405304 121.922523,308.670898 111.795776,308.715363 
	C99.264648,308.770355 86.733871,309.256561 74.206276,309.660187 
	C62.763565,310.028778 60.183216,307.601715 60.322254,296.304321 
	C60.359150,293.306244 60.335068,290.307404 60.352829,287.309021 
	C60.388638,281.262604 63.997444,277.534576 70.134415,277.191620 
	C75.128166,276.912537 78.072174,274.435791 78.248703,269.457825 
	C78.418663,264.664978 77.628494,259.843689 77.686844,255.040054 
	C77.787582,246.747299 78.248238,238.459427 78.499680,230.167740 
	C78.638931,225.575729 78.739708,220.979752 78.717346,216.386230 
	C78.675613,207.810913 78.445976,199.236053 78.449753,190.661072 
	C78.455566,177.475861 78.508400,164.289444 78.707008,151.106049 
	C78.815941,143.874405 80.215714,136.522858 79.286865,129.454910 
	C78.395035,122.668678 82.092262,115.914574 78.708336,109.266350 
	C77.813782,107.508873 78.254402,105.039970 77.279396,103.364868 
	C76.427246,101.900848 74.580582,100.447876 72.941719,100.108589 
	C66.107117,98.693657 63.673931,95.983765 63.736645,89.018517 
	C63.757648,86.686043 63.755718,84.353035 63.733009,82.020576 
	C63.680099,76.586075 66.186409,73.237595 71.468933,73.129456 
	C79.697105,72.961021 87.937378,73.485794 96.174118,73.590858 
	C100.327652,73.643845 104.490852,73.232925 108.638611,73.369118 
	C113.754791,73.537109 118.928436,73.667198 123.945412,74.557022 
	C127.433060,75.175606 129.683151,77.600830 129.017975,81.817665 
	C128.658905,84.093964 129.058167,86.478882 128.924316,88.803795 
	C128.546906,95.359741 126.389252,97.972160 120.081703,99.743286 
	C113.113594,101.699890 111.333549,105.396606 112.649826,112.733780 
	C113.450569,117.197273 113.192978,121.885170 113.107773,126.466629 
	C112.847450,140.465088 112.596931,154.467743 111.975914,168.452515 
	C111.828262,171.777344 110.249535,175.038605 109.343742,178.276611 
	C109.244164,178.282974 110.392677,178.209656 111.198494,178.158218 
	C111.198494,184.278030 111.048042,190.230286 111.247597,196.170807 
	C111.398659,200.667892 112.141396,205.142944 112.358658,209.640472 
	C112.632553,215.310074 112.692642,220.992050 112.747963,226.669632 
	C112.811043,233.143066 112.876495,239.619843 112.740974,246.090973 
	C112.588425,253.375168 112.047134,260.653442 111.991539,267.936676 
	C111.953346,272.939819 115.998665,277.121582 121.025848,277.121765 
	C126.019722,277.121948 131.008560,276.288116 136.009888,276.111359 
	C138.115295,276.036957 140.240036,276.937134 142.368195,277.003693 
	C150.805115,277.267456 159.249496,277.582703 167.685959,277.475098 
	C173.895996,277.395905 176.398819,274.929016 178.615463,268.006714 
	C180.461792,262.240784 184.835907,259.867798 190.939560,261.327240 
	C192.223923,261.634338 193.492111,262.178955 194.786713,262.245605 
	C202.826950,262.659393 203.116302,262.729248 203.008423,270.968994 
	C202.871552,281.423615 202.480316,291.877930 202.009201,302.323792 
	C201.801865,306.920837 198.235840,309.332703 191.579926,309.594482 
z"/>
<path fill="#07BF95" opacity="1.000000" stroke="none" 
	d="
M237.482193,159.532440 
	C241.781403,160.781281 245.729385,162.362976 249.771667,162.659668 
	C257.703400,163.241806 262.952240,159.298584 264.712280,152.351898 
	C266.641754,144.736435 264.077942,139.552155 256.351898,135.805115 
	C251.422394,133.414352 246.241074,131.500214 241.460373,128.852829 
	C223.629654,118.978760 216.862137,106.792412 223.310776,85.911346 
	C225.695755,78.188683 232.106491,74.734795 239.468262,73.487015 
	C251.870071,71.384979 263.257294,74.017090 272.914459,82.465767 
	C275.999817,85.165024 277.691071,93.782944 275.837921,97.249939 
	C273.688843,101.270508 269.635742,100.061646 266.451385,99.704994 
	C264.825928,99.522949 262.653870,97.116333 262.148529,95.316605 
	C260.337128,88.865433 258.532257,86.903076 252.004059,86.030205 
	C243.080353,84.837044 238.143982,86.605225 235.470673,91.952415 
	C233.130051,96.634102 233.907623,103.903625 238.577484,107.392868 
	C244.733887,111.992798 251.710007,115.512901 258.416748,119.352242 
	C262.140076,121.483719 266.314453,122.918930 269.794830,125.365891 
	C279.663116,132.303955 280.600800,142.692505 279.687866,153.499100 
	C278.777039,164.280838 271.157959,169.492340 262.062683,172.178131 
	C248.897369,176.065796 236.028931,174.794739 224.496826,166.543961 
	C221.064407,164.088181 219.023529,154.747971 220.973526,151.091202 
	C223.151474,147.006989 227.246201,148.307602 230.381180,148.686340 
	C232.044159,148.887253 233.589615,151.720505 234.787613,153.618301 
	C235.866791,155.327820 236.399719,157.382172 237.482193,159.532440 
z"/>
<path fill="#4ECFB1" opacity="1.000000" stroke="none" 
	d="
M258.023071,190.821182 
	C249.945984,190.784103 241.868896,190.747025 233.269379,190.291229 
	C232.476685,188.945038 232.206406,188.017563 232.368652,187.056244 
	C241.542343,186.691391 250.283524,186.360367 258.970428,186.378693 
	C258.618469,188.092438 258.320770,189.456802 258.023071,190.821182 
z"/>
<path fill="#79C4B2" opacity="1.000000" stroke="none" 
	d="
M259.024689,186.029343 
	C250.283524,186.360367 241.542343,186.691391 231.987030,187.045273 
	C229.720718,186.484055 228.268555,185.899963 226.816391,185.315857 
	C243.654953,185.243271 260.493500,185.154633 277.332062,185.158707 
	C277.982635,185.158859 278.632996,186.049957 278.608704,186.788757 
	C272.990356,187.085648 268.046814,187.119705 262.745331,187.107513 
	C261.266510,186.717285 260.145599,186.373306 259.024689,186.029343 
z"/>
<path fill="#06BE93" opacity="1.000000" stroke="none" 
	d="
M263.103210,187.153748 
	C268.046814,187.119705 272.990356,187.085648 278.389587,187.028976 
	C279.159271,188.056992 279.473297,189.107620 279.975006,190.786194 
	C274.736755,190.786194 269.839417,190.786194 264.315765,190.483490 
	C263.494049,189.171783 263.298645,188.162766 263.103210,187.153748 
z"/>
<path fill="#1DC69F" opacity="1.000000" stroke="none" 
	d="
M226.524017,185.306381 
	C228.268555,185.899963 229.720718,186.484055 231.554504,187.079102 
	C232.206406,188.017563 232.476685,188.945038 232.811691,190.153778 
	C229.774292,190.481400 226.671753,190.509003 223.570175,190.579605 
	C220.620071,190.646759 219.819244,189.121460 221.025818,186.184998 
	C222.758942,185.754395 223.918274,185.622147 225.077621,185.489899 
	C225.462296,185.425568 225.846970,185.361237 226.524017,185.306381 
z"/>
<path fill="#37C8A6" opacity="1.000000" stroke="none" 
	d="
M262.745300,187.107513 
	C263.298645,188.162766 263.494049,189.171783 263.850525,190.457352 
	C262.299561,190.799622 260.587555,190.865341 258.449310,190.876114 
	C258.320770,189.456802 258.618469,188.092438 258.970428,186.378693 
	C260.145599,186.373306 261.266510,186.717285 262.745300,187.107513 
z"/>
<path fill="#79C4B2" opacity="1.000000" stroke="none" 
	d="
M224.717941,185.335815 
	C223.918274,185.622147 222.758942,185.754395 221.236908,185.892502 
	C222.035553,185.659485 223.196915,185.420609 224.717941,185.335815 
z"/>
</svg>