<svg version="1.1" id="Layer_1" xmlns="http://www.w3.org/2000/svg" xmlns:xlink="http://www.w3.org/1999/xlink" x="0px" y="0px"
	 width="100%" viewBox="0 0 345 358" enable-background="new 0 0 345 358" xml:space="preserve">
<path fill="#000000" opacity="1.000000" stroke="none" 
	d="
M227.000000,359.000000 
	C151.333344,359.000000 76.166695,359.000000 1.000030,359.000000 
	C1.000020,239.666702 1.000020,120.333405 1.000010,1.000078 
	C115.999947,1.000052 230.999893,1.000052 345.999878,1.000026 
	C345.999939,120.333252 345.999939,239.666504 345.999969,358.999878 
	C306.500000,359.000000 267.000000,359.000000 227.000000,359.000000 
M113.043259,110.094612 
	C112.958839,108.668533 112.874420,107.242447 113.242332,105.299911 
	C115.015686,103.892105 116.644699,101.542152 118.588120,101.244400 
	C125.856209,100.130905 128.658752,95.324997 129.966614,88.992981 
	C131.458191,81.771614 129.880325,76.237778 125.224464,74.818398 
	C121.043404,73.543785 116.519058,73.144302 112.118088,72.926964 
	C108.995239,72.772743 105.820312,73.917046 102.677994,73.868996 
	C91.883820,73.703949 81.095451,73.148277 70.301292,72.997826 
	C66.095520,72.939209 63.034267,76.396606 62.985786,80.540100 
	C62.946808,83.871407 62.969551,87.203552 62.979065,90.535278 
	C62.994026,95.775131 67.304482,100.782478 72.556320,100.950127 
	C75.265984,101.036629 76.665329,102.059181 76.877037,104.420425 
	C77.641884,112.951271 78.397270,121.491310 78.778992,130.044708 
	C78.975632,134.450851 78.376282,138.892517 78.022263,144.200378 
	C78.063553,154.475296 78.104843,164.750198 77.989410,175.889023 
	C77.377335,182.420654 76.357147,188.946915 76.271019,195.485474 
	C76.189232,201.693893 77.194435,207.909500 77.517334,214.132553 
	C77.793015,219.445633 79.295746,225.339050 77.568474,229.974442 
	C74.244087,238.895935 77.864799,247.406235 77.095108,256.060486 
	C76.766319,259.757202 77.916641,263.560913 77.943153,267.319183 
	C77.990974,274.096954 74.583321,277.506744 67.793221,277.971985 
	C62.762665,278.316650 60.019745,281.184326 60.006840,286.122772 
	C59.992912,291.453094 59.951302,296.783630 59.986271,302.113678 
	C60.015400,306.552521 62.392536,309.351257 66.656647,309.890839 
	C70.273697,310.348541 73.993134,310.002472 77.667259,310.002899 
	C91.934578,310.004578 106.201897,310.002136 120.469215,310.002411 
	C123.467735,310.002472 126.466255,310.013123 129.464767,310.009003 
	C136.489746,309.999359 143.517532,310.102325 150.538834,309.934784 
	C156.664658,309.788635 162.784851,309.049225 168.904404,309.086426 
	C177.320190,309.137604 185.730820,309.764069 194.147934,309.967926 
	C199.187515,310.089966 202.914566,306.113953 203.064835,301.047241 
	C203.329681,292.116821 203.813370,283.191376 203.958893,274.259796 
	C204.009109,271.177917 203.622223,268.005249 202.834274,265.033325 
	C202.504593,263.789795 200.712570,262.257172 199.411133,262.070435 
	C194.853897,261.416504 190.208664,260.932190 185.620560,261.086945 
	C182.336441,261.197693 178.925369,261.615906 177.847992,266.222748 
	C175.497665,276.272888 167.422913,280.205475 157.379745,276.736176 
	C156.583359,276.461090 155.624619,276.620789 154.742279,276.635651 
	C150.430283,276.708252 146.118561,276.797607 141.806854,276.886139 
	C136.646408,276.992065 131.283432,276.255127 126.377106,277.427307 
	C120.285568,278.882751 113.556602,275.566833 113.072136,269.238525 
	C112.740685,264.908936 112.926003,260.530731 113.036026,256.178192 
	C113.278915,246.569397 113.664330,236.964157 113.903976,227.355301 
	C114.037270,222.011261 114.249069,216.649628 113.972534,211.319427 
	C113.536514,202.914795 112.719070,194.529938 112.827713,185.690063 
	C112.835831,180.129425 112.843941,174.568802 112.995277,168.251633 
	C112.944862,167.486771 112.894455,166.721909 112.969284,165.031509 
	C112.915436,156.467682 112.861588,147.903870 113.023285,138.419159 
	C113.306732,134.287842 113.590179,130.156509 114.022018,125.100159 
	C113.719604,120.363655 113.417191,115.627144 113.079124,110.960487 
	C113.079124,110.960487 113.152794,110.933609 113.043259,110.094612 
M262.441528,99.004021 
	C266.112000,101.878532 273.793610,102.388702 275.244049,98.839745 
	C276.845154,94.922226 277.354584,89.155983 275.589508,85.535706 
	C270.836487,75.786819 247.288010,69.427689 236.768982,73.440796 
	C229.495422,76.215729 224.193878,80.062195 221.465622,87.773300 
	C218.009598,97.541344 220.636566,111.788734 227.598236,119.281616 
	C234.613541,126.832253 243.601715,130.876419 252.617111,135.197754 
	C256.682098,137.146210 261.147552,139.886719 263.457367,143.522049 
	C267.916779,150.540649 260.851532,163.152252 250.468597,162.854340 
	C246.650543,162.744827 242.520447,161.956451 239.210449,160.200272 
	C237.343262,159.209579 237.074249,155.482941 235.678864,153.241821 
	C234.503342,151.353821 232.865631,148.573227 231.212280,148.409348 
	C227.790695,148.070145 224.220413,149.195877 220.719528,149.769562 
	C220.479691,149.808868 220.260895,150.242203 220.112366,150.533142 
	C217.824402,155.015366 220.172058,164.877075 224.231369,167.748352 
	C235.675919,175.843445 248.522369,175.957581 261.322784,173.081329 
	C272.535431,170.561829 280.414215,163.587769 280.788727,151.230453 
	C280.952820,145.815781 280.195801,139.973434 278.204102,134.985260 
	C275.080200,127.161285 267.950958,122.902672 260.349518,119.990685 
	C252.043304,116.808708 243.916016,113.569077 238.026657,106.432838 
	C233.933395,101.472954 233.551468,91.024185 240.881470,87.437431 
	C246.892242,84.496185 252.074219,86.869888 257.470062,88.309731 
	C261.692749,89.436531 260.681244,93.439964 261.180267,96.545372 
	C261.278778,97.158661 261.715424,97.717621 262.441528,99.004021 
z"/>
<path fill="#05BE94" opacity="1.000000" stroke="none" 
	d="
M113.873627,126.025192 
	C113.590179,130.156509 113.306732,134.287842 112.649963,139.178482 
	C112.073532,145.400360 111.693390,150.864258 111.734505,156.324982 
	C111.758705,159.538269 112.451797,162.746521 112.844040,165.957047 
	C112.894455,166.721909 112.944862,167.486771 112.610565,168.781433 
	C111.160110,172.311691 110.094383,175.312164 109.028664,178.312607 
	C109.199142,178.304184 110.371269,178.246185 111.702599,178.180328 
	C111.828796,180.965607 111.945946,183.551163 112.063095,186.136719 
	C112.719070,194.529938 113.536514,202.914795 113.972534,211.319427 
	C114.249069,216.649628 114.037270,222.011261 113.903976,227.355301 
	C113.664330,236.964157 113.278915,246.569397 113.036026,256.178192 
	C112.926003,260.530731 112.740685,264.908936 113.072136,269.238525 
	C113.556602,275.566833 120.285568,278.882751 126.377106,277.427307 
	C131.283432,276.255127 136.646408,276.992065 141.806854,276.886139 
	C146.118561,276.797607 150.430283,276.708252 154.742279,276.635651 
	C155.624619,276.620789 156.583359,276.461090 157.379745,276.736176 
	C167.422913,280.205475 175.497665,276.272888 177.847992,266.222748 
	C178.925369,261.615906 182.336441,261.197693 185.620560,261.086945 
	C190.208664,260.932190 194.853897,261.416504 199.411133,262.070435 
	C200.712570,262.257172 202.504593,263.789795 202.834274,265.033325 
	C203.622223,268.005249 204.009109,271.177917 203.958893,274.259796 
	C203.813370,283.191376 203.329681,292.116821 203.064835,301.047241 
	C202.914566,306.113953 199.187515,310.089966 194.147934,309.967926 
	C185.730820,309.764069 177.320190,309.137604 168.904404,309.086426 
	C162.784851,309.049225 156.664658,309.788635 150.538834,309.934784 
	C143.517532,310.102325 136.489746,309.999359 129.464767,310.009003 
	C126.466255,310.013123 123.467735,310.002472 120.469215,310.002411 
	C106.201897,310.002136 91.934578,310.004578 77.667259,310.002899 
	C73.993134,310.002472 70.273697,310.348541 66.656647,309.890839 
	C62.392536,309.351257 60.015400,306.552521 59.986271,302.113678 
	C59.951302,296.783630 59.992912,291.453094 60.006840,286.122772 
	C60.019745,281.184326 62.762665,278.316650 67.793221,277.971985 
	C74.583321,277.506744 77.990974,274.096954 77.943153,267.319183 
	C77.916641,263.560913 76.766319,259.757202 77.095108,256.060486 
	C77.864799,247.406235 74.244087,238.895935 77.568474,229.974442 
	C79.295746,225.339050 77.793015,219.445633 77.517334,214.132553 
	C77.194435,207.909500 76.189232,201.693893 76.271019,195.485474 
	C76.357147,188.946915 77.377335,182.420654 78.336395,175.134064 
	C78.858810,164.302307 79.042763,154.225586 79.164085,144.148117 
	C79.167374,143.875626 78.494286,143.594971 78.136612,143.318130 
	C78.376282,138.892517 78.975632,134.450851 78.778992,130.044708 
	C78.397270,121.491310 77.641884,112.951271 76.877037,104.420425 
	C76.665329,102.059181 75.265984,101.036629 72.556320,100.950127 
	C67.304482,100.782478 62.994026,95.775131 62.979065,90.535278 
	C62.969551,87.203552 62.946808,83.871407 62.985786,80.540100 
	C63.034267,76.396606 66.095520,72.939209 70.301292,72.997826 
	C81.095451,73.148277 91.883820,73.703949 102.677994,73.868996 
	C105.820312,73.917046 108.995239,72.772743 112.118088,72.926964 
	C116.519058,73.144302 121.043404,73.543785 125.224464,74.818398 
	C129.880325,76.237778 131.458191,81.771614 129.966614,88.992981 
	C128.658752,95.324997 125.856209,100.130905 118.588120,101.244400 
	C116.644699,101.542152 115.015686,103.892105 112.775993,105.904099 
	C112.590698,107.983398 112.871750,109.458504 113.152794,110.933609 
	C113.152794,110.933609 113.079124,110.960487 112.710411,111.193848 
	C112.367134,113.363922 112.232025,115.319382 112.455276,117.233025 
	C112.798927,120.178818 113.388428,123.095917 113.873627,126.025192 
z"/>
<path fill="#09C096" opacity="1.000000" stroke="none" 
	d="
M262.218842,98.652832 
	C261.715424,97.717621 261.278778,97.158661 261.180267,96.545372 
	C260.681244,93.439964 261.692749,89.436531 257.470062,88.309731 
	C252.074219,86.869888 246.892242,84.496185 240.881470,87.437431 
	C233.551468,91.024185 233.933395,101.472954 238.026657,106.432838 
	C243.916016,113.569077 252.043304,116.808708 260.349518,119.990685 
	C267.950958,122.902672 275.080200,127.161285 278.204102,134.985260 
	C280.195801,139.973434 280.952820,145.815781 280.788727,151.230453 
	C280.414215,163.587769 272.535431,170.561829 261.322784,173.081329 
	C248.522369,175.957581 235.675919,175.843445 224.231369,167.748352 
	C220.172058,164.877075 217.824402,155.015366 220.112366,150.533142 
	C220.260895,150.242203 220.479691,149.808868 220.719528,149.769562 
	C224.220413,149.195877 227.790695,148.070145 231.212280,148.409348 
	C232.865631,148.573227 234.503342,151.353821 235.678864,153.241821 
	C237.074249,155.482941 237.343262,159.209579 239.210449,160.200272 
	C242.520447,161.956451 246.650543,162.744827 250.468597,162.854340 
	C260.851532,163.152252 267.916779,150.540649 263.457367,143.522049 
	C261.147552,139.886719 256.682098,137.146210 252.617111,135.197754 
	C243.601715,130.876419 234.613541,126.832253 227.598236,119.281616 
	C220.636566,111.788734 218.009598,97.541344 221.465622,87.773300 
	C224.193878,80.062195 229.495422,76.215729 236.768982,73.440796 
	C247.288010,69.427689 270.836487,75.786819 275.589508,85.535706 
	C277.354584,89.155983 276.845154,94.922226 275.244049,98.839745 
	C273.793610,102.388702 266.112000,101.878532 262.218842,98.652832 
z"/>
<path fill="#96DBCB" opacity="1.000000" stroke="none" 
	d="
M78.079437,143.759247 
	C78.494286,143.594971 79.167374,143.875626 79.164085,144.148117 
	C79.042763,154.225586 78.858810,164.302307 78.414757,174.702118 
	C78.104843,164.750198 78.063553,154.475296 78.079437,143.759247 
z"/>
<path fill="#F0F9F7" opacity="1.000000" stroke="none" 
	d="
M112.445404,185.913391 
	C111.945946,183.551163 111.828796,180.965607 111.702599,178.180328 
	C110.371269,178.246185 109.199142,178.304184 109.028664,178.312607 
	C110.094383,175.312164 111.160110,172.311691 112.538948,169.159698 
	C112.843941,174.568802 112.835831,180.129425 112.445404,185.913391 
z"/>
<path fill="#F3F9F8" opacity="1.000000" stroke="none" 
	d="
M112.906662,165.494278 
	C112.451797,162.746521 111.758705,159.538269 111.734505,156.324982 
	C111.693390,150.864258 112.073532,145.400360 112.542191,139.638916 
	C112.861588,147.903870 112.915436,156.467682 112.906662,165.494278 
z"/>
<path fill="#E7F2EF" opacity="1.000000" stroke="none" 
	d="
M113.947823,125.562675 
	C113.388428,123.095917 112.798927,120.178818 112.455276,117.233025 
	C112.232025,115.319382 112.367134,113.363922 112.728241,111.158920 
	C113.417191,115.627144 113.719604,120.363655 113.947823,125.562675 
z"/>
<path fill="#E7F2EF" opacity="1.000000" stroke="none" 
	d="
M113.098022,110.514114 
	C112.871750,109.458504 112.590698,107.983398 112.549835,106.162331 
	C112.874420,107.242447 112.958839,108.668533 113.098022,110.514114 
z"/>
</svg>